<svg width="28" height="24" viewBox="0 0 28 24" fill="none" xmlns="http://www.w3.org/2000/svg">
<path d="M4.54466 3.9978C3.9138 3.9978 3.4018 4.4455 3.4018 4.9978C3.4018 5.5501 3.9138 5.9978 4.54466 5.9978H22.8303C23.4612 5.9978 23.9732 5.5501 23.9732 4.9978C23.9732 4.4455 23.4612 3.9978 22.8303 3.9978H4.54466ZM4.54466 7.9978C2.65094 7.9978 1.11609 9.3409 1.11609 10.9978V16.9978C1.11609 18.6548 2.65094 19.9978 4.54466 19.9978H21.6875H22.8303C24.7241 19.9978 26.2589 18.6548 26.2589 16.9978V10.9978C26.2589 9.3409 24.7241 7.9978 22.8303 7.9978H4.54466ZM6.63493 10.0088L20.7618 9.991C21.1321 11.1208 22.5241 11.9978 23.9732 11.9978V15.9978C22.5241 15.9978 21.2201 16.8158 20.7412 17.9998L6.61894 17.9928C6.16637 16.8338 4.85094 15.9978 3.4018 15.9978V11.9978C4.85094 11.9978 6.15722 11.1678 6.63493 10.0088ZM13.6875 10.9978C11.7938 10.9978 10.2589 12.3408 10.2589 13.9978C10.2589 15.6548 11.7938 16.9978 13.6875 16.9978C15.5812 16.9978 17.1161 15.6548 17.1161 13.9978C17.1161 12.3408 15.5812 10.9978 13.6875 10.9978ZM13.6875 12.9978C14.3184 12.9978 14.8304 13.4458 14.8304 13.9978C14.8304 14.5498 14.3184 14.9978 13.6875 14.9978C13.0566 14.9978 12.5446 14.5498 12.5446 13.9978C12.5446 13.4458 13.0566 12.9978 13.6875 12.9978Z" fill="black"/>
</svg>
