<svg width="28" height="24" viewBox="0 0 28 24" fill="none" xmlns="http://www.w3.org/2000/svg">
<path d="M5.73045 3.9978C3.83674 3.9978 2.30188 5.3408 2.30188 6.9978V16.9978C2.30188 18.6548 3.83674 19.9978 5.73045 19.9978H21.7305C23.6242 19.9978 25.159 18.6548 25.159 16.9978V6.9978C25.159 5.3408 23.6242 3.9978 21.7305 3.9978H5.73045ZM5.73045 5.9978H21.7305C22.3613 5.9978 22.8733 6.4458 22.8733 6.9978V13.9978H4.58759V6.9978C4.58759 6.4458 5.09959 5.9978 5.73045 5.9978ZM17.159 7.9978C16.5282 7.9978 16.0162 8.4458 16.0162 8.9978C16.0162 9.5498 16.5282 9.9978 17.159 9.9978H19.4447C20.0756 9.9978 20.5876 9.5498 20.5876 8.9978C20.5876 8.4458 20.0756 7.9978 19.4447 7.9978H17.159ZM4.58759 15.9978H22.8733V16.9978C22.8733 17.5498 22.3613 17.9978 21.7305 17.9978H5.73045C5.09959 17.9978 4.58759 17.5498 4.58759 16.9978V15.9978Z" fill="black"/>
</svg>
